<?xml version="1.0" standalone="no"?>
<!DOCTYPE svg PUBLIC "-//W3C//DTD SVG 20010904//EN"
 "http://www.w3.org/TR/2001/REC-SVG-20010904/DTD/svg10.dtd">
<svg version="1.0" xmlns="http://www.w3.org/2000/svg"
 width="416.000000pt" height="416.000000pt" viewBox="0 0 416.000000 416.000000"
 preserveAspectRatio="xMidYMid meet">

<g transform="translate(0.000000,416.000000) scale(0.100000,-0.100000)"
fill="#000000" stroke="none">
<path d="M2376 3025 c-38 -38 -26 -3 -240 -680 -177 -561 -296 -933 -311 -969
-42 -100 8 -231 108 -282 41 -22 118 -28 163 -14 46 15 98 52 120 85 19 29
154 456 148 467 -3 4 0 8 6 8 6 0 10 8 8 18 -2 9 -7 15 -12 14 -15 -6 -24 19
-20 57 2 20 4 299 4 619 1 536 2 583 17 570 15 -12 15 -11 3 9 -8 12 -18 19
-22 17 -12 -8 -9 11 4 24 7 7 9 12 5 12 -4 0 -2 6 5 14 7 8 18 11 23 8 6 -3 7
-1 2 3 -4 5 3 19 15 32 34 37 12 27 -26 -12z m-26 -1367 c0 -9 4 -8 10 2 6 9
10 10 10 3 0 -6 -4 -14 -10 -18 -5 -3 -7 -13 -4 -23 5 -14 4 -15 -5 -2 -9 12
-11 13 -11 1 0 -8 -3 -11 -6 -8 -4 4 -1 13 6 22 8 10 9 15 1 15 -6 0 -11 5
-11 10 0 6 5 10 10 10 6 0 10 -6 10 -12z"/>
<path d="M1372 2684 c-29 -14 -60 -38 -71 -52 -20 -30 -138 -232 -333 -572
l-130 -225 4 -72 c3 -60 8 -79 33 -115 53 -75 158 -114 245 -89 25 7 25 7 3
13 l-23 6 0 297 c0 195 -3 294 -10 290 -5 -3 -10 -3 -10 0 0 3 17 13 38 22 48
20 147 20 196 -1 83 -35 109 -64 154 -176 10 -24 10 -24 9 7 -1 18 -5 33 -9
33 -3 0 -12 19 -20 43 -10 32 -12 101 -8 304 4 213 2 264 -8 268 -22 8 -8 28
23 32 42 6 44 13 4 13 -19 0 -58 -12 -87 -26z"/>
<path d="M2715 2436 c-58 -27 -98 -67 -118 -116 l-15 -35 163 -313 c89 -172
168 -318 175 -325 10 -10 10 -8 0 11 -6 13 -9 30 -6 38 3 9 1 12 -4 9 -6 -3
-10 0 -10 9 0 8 -3 22 -7 32 -3 10 -2 15 3 12 5 -4 8 128 7 330 -3 310 -1 338
15 351 16 13 16 13 0 8 -10 -4 -18 -2 -18 3 0 6 -30 10 -67 10 -51 0 -81 -6
-118 -24z"/>
<path d="M2930 1626 c0 -2 8 -10 18 -17 15 -13 16 -12 3 4 -13 16 -21 21 -21
13z"/>
</g>
</svg>
